# xmcd
#
# Track frame offsets:
#	150
#	34451
#	73082
#	102873
#	159701
#
# Disc length: 3611 seconds
#
# Revision: 0
# Processed by: cddbd v1.5.2PL0 Copyright (c) Steve Scherf et al.
# Submitted via: audiograbber 1.83.01
#
DISCID=420e1905
DTITLE=Grateful Dead - 92-06-20 Robert F Kennedy Stadium, Washington DC
DYEAR=1900
DGENRE=
TTITLE0=Corrina
TTITLE1=Crazy Fingers
TTITLE2=Playing In The Band
TTITLE3=Uncle John's Band
TTITLE4=Drums > Space
EXTD=
EXTT0=
EXTT1=
EXTT2=
EXTT3=
EXTT4=
PLAYORDER=
